<?xml version="1.0" encoding="utf-8"?>
<!-- Generator: Adobe Illustrator 27.0.1, SVG Export Plug-In . SVG Version: 6.00 Build 0)  -->
<svg version="1.1" id="Layer_1" xmlns="http://www.w3.org/2000/svg" xmlns:xlink="http://www.w3.org/1999/xlink" x="0px" y="0px"
	 viewBox="0 0 385.3 166" style="enable-background:new 0 0 385.3 166;" xml:space="preserve">
<style type="text/css">
	.st0{fill:#FFFFFF;}
	.st1{fill:#DBCC34;}
	.st2{font-family:'ChivoMono-Medium';}
	.st3{font-size:12px;}
	.st4{letter-spacing:1;}
</style>
<g>
	<path class="st0" d="M84,73.4l-0.1-37.7h5.6l0.3,27H90l7.8-27h5.2l0.2,27h0.2l7.9-27h5.5L106,73.4h-7l-0.3-25.8h-0.2L91,73.4H84
		L84,73.4z"/>
	<path class="st0" d="M131.4,73.9c-2.4,0-4.5-0.4-6.2-1.3c-1.8-0.8-3.2-2.2-4.1-3.9c-1-1.8-1.5-4-1.5-6.7c0-2.5,0.3-4.8,1-7
		s1.6-3.9,2.9-5.5s2.8-2.8,4.7-3.6s4.1-1.3,6.5-1.3h0.8c2.2,0,4.1,0.4,5.8,1.3c1.7,0.8,3,2,3.9,3.5s1.4,3.2,1.4,5.2
		c0,0.4,0,0.9-0.1,1.6c0,0.7-0.1,1.3-0.2,2.1c-0.1,0.7-0.2,1.4-0.3,2.1h-22.4l3.1-2.2c-0.2,0.8-0.3,1.7-0.4,2.5s-0.2,1.5-0.2,2.2
		c0,1.7,0.3,3,0.8,4s1.3,1.7,2.3,2.1c0.9,0.4,1.9,0.6,3.1,0.6c2.1,0,3.7-0.5,5-1.6s2-2.7,2.3-4.8h6c-0.3,2.1-1,4-2.1,5.6
		s-2.7,2.9-4.6,3.8c-1.9,0.9-4.2,1.4-6.9,1.4L131.4,73.9L131.4,73.9z M126.8,57.4l-2.7-0.9h16.1c0.1-0.5,0.1-0.9,0.1-1.2v-0.7
		c0-1.2-0.3-2.3-0.8-3.1s-1.2-1.4-2.1-1.8c-0.9-0.4-1.8-0.6-2.8-0.6c-1.4,0-2.7,0.3-3.8,1s-2,1.6-2.7,2.8
		C127.5,54.1,127,55.6,126.8,57.4z"/>
	<path class="st0" d="M168.8,73.9c-1.9,0-3.5-0.4-5-1.2c-1.4-0.8-2.5-1.8-3.3-3.2l-1,3.8h-4.9l5.6-39.6h6.4l-2,14.3
		c0.8-0.9,1.8-1.7,3.1-2.3s3-1,5.1-1c2.9,0,5.2,0.9,7,2.8s2.6,4.5,2.6,8.1c0,2.2-0.2,4.5-0.7,6.6s-1.2,4.2-2.2,5.9
		c-1.1,1.8-2.4,3.2-4.2,4.2C173.6,73.4,171.4,73.9,168.8,73.9L168.8,73.9z M168.2,69.5c1.7,0,3-0.5,4.1-1.4s1.8-2.2,2.4-3.7
		c0.5-1.8,0.8-3.5,1.1-5s0.4-2.8,0.4-4s-0.2-2.3-0.6-3.2c-0.4-1-1-1.7-1.8-2.3s-1.9-0.8-3.1-0.8c-1.7,0-3.1,0.5-4.1,1.4
		s-1.8,2.1-2.3,3.5c-0.6,2-0.9,3.8-1.2,5.2c-0.2,1.5-0.4,2.8-0.4,4.1c0,1.2,0.2,2.2,0.6,3.2c0.4,0.9,1,1.7,1.8,2.2
		S166.9,69.6,168.2,69.5L168.2,69.5z"/>
	<path class="st0" d="M201.3,73.9c-2.5,0-4.6-0.4-6.4-1.2c-1.8-0.8-3.1-1.8-4.1-3.2c-0.9-1.4-1.4-3-1.4-4.8c0-0.4,0-0.8,0.1-1.2
		c0-0.4,0.1-0.8,0.2-1.3h5.9c0,0.3-0.1,0.5-0.1,0.8s0,0.5,0,0.8c0,1.8,0.6,3.1,1.9,3.9c1.3,0.8,2.9,1.2,4.9,1.2
		c1.6,0,3.1-0.3,4.4-0.8c1.3-0.6,2.3-1.4,3.1-2.5s1.2-2.5,1.2-4.1c0-1.2-0.3-2.2-0.9-2.9s-1.3-1.3-2.3-1.7s-2-0.5-3.2-0.5h-4.9
		l0.7-4.5h4.4c1.3,0,2.5-0.2,3.7-0.7s2.1-1.2,2.9-2.3s1.1-2.3,1.1-3.8c0-1.7-0.6-2.9-1.7-3.7c-1.2-0.8-2.6-1.2-4.4-1.2
		c-2.1,0-3.9,0.5-5.2,1.6c-1.4,1.1-2.2,2.6-2.5,4.6H193c0.2-2.3,0.9-4.3,2.2-6s3-3,5.1-3.9s4.4-1.4,6.9-1.4h0.8
		c2.2,0,4.1,0.4,5.8,1.1s3,1.8,3.9,3.1s1.4,2.9,1.4,4.6s-0.3,3.2-1,4.5s-1.5,2.3-2.6,3.2s-2.3,1.6-3.6,2.2v0.3c1.6,0.6,3,1.5,4,2.7
		s1.5,2.8,1.5,4.8c0,2.6-0.7,4.8-2,6.7s-3.1,3.3-5.4,4.3s-4.8,1.5-7.5,1.5L201.3,73.9L201.3,73.9z"/>
</g>
<g>
	<path class="st1" d="M53.6,121c-2.5,0-4.8-0.3-6.9-1c-2.1-0.7-3.8-1.8-5.1-3.3s-2-3.4-2-5.8c0-0.6,0-1.1,0.1-1.6
		c0-0.5,0.1-1,0.2-1.5h9.6c-0.1,0.2-0.1,0.4-0.2,0.7s-0.1,0.5-0.1,0.8c0,0.7,0.2,1.4,0.5,1.9s1,1,1.8,1.3s1.9,0.5,3.3,0.5
		s2.5-0.2,3.3-0.5s1.4-0.7,1.8-1.3c0.4-0.5,0.6-1.2,0.6-1.8c0-0.8-0.3-1.4-1-1.8s-1.5-0.8-2.6-1.1c-1.1-0.3-2.2-0.6-3.5-0.9
		s-2.6-0.7-3.8-1.1s-2.5-1-3.5-1.7c-1.1-0.7-2-1.7-2.6-2.8s-1-2.6-1-4.3c0-3,0.8-5.5,2.3-7.5s3.5-3.5,6.1-4.5s5.5-1.5,8.7-1.5
		c2.5,0,4.7,0.3,6.7,1s3.6,1.7,4.8,3.1c1.2,1.4,1.8,3.2,1.8,5.5c0,0.3,0,0.6,0,1c0,0.3-0.1,0.8-0.2,1.4h-9.5c0-0.3,0.1-0.4,0.1-0.6
		v-0.4c0-1.1-0.4-1.9-1.2-2.6c-0.8-0.6-2.1-0.9-3.7-0.9c-1,0-1.9,0.1-2.8,0.4c-0.8,0.3-1.4,0.7-1.9,1.1C53.3,91.7,53,92.3,53,93
		c0,0.8,0.3,1.4,1,1.9s1.6,0.8,2.7,1.2c1.1,0.3,2.3,0.6,3.6,0.9s2.6,0.7,3.9,1.1c1.3,0.4,2.5,1,3.6,1.7s2,1.6,2.7,2.6s1,2.4,1,4.1
		c0,1.8-0.3,3.6-0.9,5.4c-0.6,1.7-1.6,3.3-3,4.7c-1.4,1.4-3.2,2.5-5.5,3.3S57,121,53.6,121L53.6,121z"/>
	<path class="st1" d="M75.2,120.4l5.3-37.7h9.6L95,98.3l0.9,3.7l0.3-0.1L99,82.7h9.4l-5.3,37.7h-9.6l-5-15.5l-0.9-3.5l-0.3,0.1
		l-2.6,18.9L75.2,120.4L75.2,120.4z"/>
	<path class="st1" d="M108,120.4l15.1-37.7h13.2l4.5,37.7h-9.9l-2.2-29.5h-0.3l-10.2,29.5L108,120.4L108,120.4z M116.4,113.3l1-7.2
		h17.5l-1,7.2H116.4z"/>
	<path class="st1" d="M145.6,120.4l5.3-37.7h17.2c2.3,0,4.3,0.4,6,1.2c1.7,0.8,3,2,4,3.4c0.9,1.4,1.4,3.2,1.4,5.1
		c0,2.8-0.5,5.3-1.6,7.4c-1.1,2.2-2.6,3.8-4.6,5s-4.3,1.8-7,1.8h-8.7l-1.9,13.8H145.6L145.6,120.4z M158.8,98.9h5.7
		c1.1,0,1.9-0.2,2.6-0.7s1.1-1.1,1.4-1.9c0.3-0.8,0.4-1.5,0.4-2.3c0-0.9-0.3-1.7-0.9-2.4s-1.5-1-2.8-1h-5.3L158.8,98.9L158.8,98.9z"
		/>
	<path class="st1" d="M194.4,121c-2.5,0-4.8-0.3-6.9-1c-2.1-0.7-3.8-1.8-5.1-3.3s-1.9-3.4-1.9-5.8c0-0.6,0-1.1,0.1-1.6
		s0.1-1,0.2-1.5h9.6c-0.1,0.2-0.1,0.4-0.2,0.7s-0.1,0.5-0.1,0.8c0,0.7,0.2,1.4,0.6,1.9c0.4,0.6,0.9,1,1.8,1.3s1.9,0.5,3.3,0.5
		s2.5-0.2,3.3-0.5s1.4-0.7,1.8-1.3c0.4-0.5,0.6-1.2,0.6-1.8c0-0.8-0.3-1.4-1-1.8s-1.5-0.8-2.6-1.1c-1.1-0.3-2.2-0.6-3.5-0.9
		s-2.6-0.7-3.9-1.1s-2.5-1-3.6-1.7s-1.9-1.7-2.6-2.8s-1-2.6-1-4.3c0-3,0.8-5.5,2.3-7.5s3.6-3.5,6.1-4.5c2.6-1,5.5-1.5,8.7-1.5
		c2.5,0,4.7,0.3,6.7,1s3.6,1.7,4.8,3.1s1.8,3.2,1.8,5.5c0,0.3,0,0.6,0,1c0,0.3-0.1,0.8-0.2,1.4H204c0-0.3,0.1-0.4,0.1-0.6v-0.4
		c0-1.1-0.4-1.9-1.2-2.6s-2.1-0.9-3.7-0.9c-1,0-1.9,0.1-2.8,0.4s-1.4,0.7-1.9,1.1c-0.4,0.5-0.7,1.1-0.7,1.8c0,0.8,0.3,1.4,1,1.9
		s1.6,0.8,2.7,1.2s2.3,0.6,3.6,0.9s2.6,0.7,3.9,1.1c1.3,0.4,2.5,1,3.6,1.7s2,1.6,2.7,2.6s1,2.4,1,4.1c0,1.8-0.3,3.6-0.9,5.4
		c-0.6,1.7-1.6,3.3-3,4.7c-1.4,1.4-3.2,2.5-5.5,3.3S197.8,121,194.4,121L194.4,121z"/>
	<path class="st1" d="M216,120.4l5.3-37.7h9.9l-2,14.4h8l2-14.4h9.9l-5.3,37.7h-9.9l2.2-15.1H228l-2.1,15.1L216,120.4L216,120.4z"/>
	<path class="st1" d="M264.7,121c-2.8,0-5.3-0.5-7.3-1.5c-2.1-1-3.6-2.5-4.7-4.4c-1.1-1.9-1.6-4.2-1.6-6.9c0-0.5,0-1.1,0.1-1.8
		c0.1-0.7,0.2-1.7,0.4-3s0.4-3.1,0.7-5.4c0.8-5.3,2.6-9.2,5.5-11.9c2.9-2.7,6.9-4,11.9-4h1.3c2.9,0,5.3,0.5,7.3,1.5s3.6,2.4,4.6,4.3
		s1.6,4.2,1.6,6.9c0,0.4,0,1-0.1,1.7c0,0.7-0.2,1.7-0.4,3.1s-0.4,3.1-0.8,5.4c-0.7,5.2-2.5,9.2-5.5,11.8s-6.9,4-11.9,4h-1.1V121z
		 M266.2,113.2c1.8,0,3.2-0.5,4.3-1.5s1.7-2.6,2-4.6c0.4-2.7,0.7-4.9,0.9-6.5s0.4-2.8,0.5-3.6c0.1-0.8,0.1-1.4,0.2-1.7
		c0-0.3,0-0.5,0-0.7c0-1.1-0.2-2-0.5-2.7s-0.9-1.2-1.6-1.5s-1.5-0.5-2.5-0.5c-1.8,0-3.2,0.5-4.2,1.5s-1.7,2.6-2,4.6
		c-0.4,2.7-0.7,4.9-0.9,6.5c-0.2,1.6-0.4,2.8-0.5,3.6c-0.1,0.8-0.1,1.4-0.2,1.7c0,0.3,0,0.5,0,0.7c0,1.1,0.2,1.9,0.5,2.6
		s0.9,1.2,1.6,1.5S265.2,113.1,266.2,113.2L266.2,113.2z"/>
	<path class="st1" d="M294.1,120.4l4.1-29.5h-10l1.2-8.2h30.2l-1.1,8.2h-10l-4.2,29.5H294.1L294.1,120.4z"/>
</g>
<path class="st1" d="M345.2,51.9c-10.8,2.4-13.7,5.3-16.2,16.2c-0.2,0.9-1.4,0.9-1.6,0c-2.4-10.8-5.3-13.7-16.2-16.2
	c-0.9-0.2-0.9-1.4,0-1.6c10.8-2.4,13.7-5.3,16.2-16.2c0.2-0.9,1.4-0.9,1.6,0c2.4,10.8,5.3,13.7,16.2,16.2
	C346.1,50.5,346.1,51.7,345.2,51.9z"/>
<text transform="matrix(1 0 0 1 154.4905 137.9161)" class="st0 st2 st3 st4">DASHBOARD</text>
</svg>
