<?xml version="1.0" encoding="UTF-8"?>
<svg id="Layer_1" data-name="Layer 1" xmlns="http://www.w3.org/2000/svg" width="385.26" height="165.96" viewBox="0 0 385.26 165.96">
  <defs>
    <style>
      .cls-1 {
        fill: #fff;
      }

      .cls-2 {
        fill: #dbcc34;
      }
    </style>
  </defs>
  <g>
    <g>
      <path class="cls-1" d="M94.79,67.15l-.11-37.73h5.61l.33,27.01h.22l7.81-27.01h5.22l.22,27.01h.22l7.87-27.01h5.5l-10.78,37.73h-6.99l-.33-25.79h-.22l-7.54,25.79h-7.04Z"/>
      <path class="cls-1" d="M142.2,67.7c-2.38,0-4.46-.42-6.24-1.27-1.78-.84-3.15-2.15-4.12-3.9-.97-1.76-1.46-3.98-1.46-6.66,0-2.53,.32-4.85,.96-6.96,.64-2.11,1.59-3.94,2.86-5.5,1.27-1.56,2.84-2.77,4.73-3.63,1.89-.86,4.06-1.29,6.52-1.29h.77c2.16,0,4.08,.42,5.75,1.27,1.67,.84,2.97,2.01,3.91,3.49,.93,1.49,1.4,3.22,1.4,5.2,0,.4-.02,.94-.06,1.59-.04,.66-.09,1.35-.17,2.06-.07,.72-.18,1.4-.33,2.06h-22.44l3.13-2.15c-.15,.84-.27,1.67-.38,2.48-.11,.81-.17,1.54-.17,2.2,0,1.69,.28,3.02,.85,3.99,.57,.97,1.32,1.66,2.25,2.06,.93,.4,1.95,.6,3.05,.6,2.05,0,3.71-.53,4.98-1.59,1.26-1.06,2.04-2.68,2.34-4.84h6c-.29,2.13-1.01,4-2.14,5.61-1.14,1.61-2.66,2.88-4.57,3.79-1.91,.92-4.22,1.38-6.93,1.38h-.5Zm-4.67-16.56l-2.7-.88h16.12c.07-.51,.11-.9,.11-1.15v-.72c0-1.25-.26-2.27-.77-3.08-.51-.81-1.2-1.42-2.06-1.84-.86-.42-1.81-.63-2.83-.63-1.43,0-2.7,.32-3.8,.96-1.1,.64-1.99,1.58-2.67,2.8-.68,1.23-1.15,2.74-1.4,4.54Z"/>
      <path class="cls-1" d="M179.6,67.7c-1.87,0-3.53-.39-4.98-1.16-1.45-.77-2.54-1.83-3.27-3.19l-.99,3.79h-4.95l5.55-39.6h6.38l-1.98,14.3c.77-.88,1.8-1.66,3.08-2.34,1.28-.68,2.99-1.02,5.12-1.02,2.9,0,5.22,.92,6.98,2.75,1.76,1.83,2.64,4.55,2.64,8.14,0,2.24-.23,4.45-.69,6.63-.46,2.18-1.21,4.15-2.25,5.91-1.05,1.76-2.44,3.16-4.18,4.21-1.74,1.04-3.9,1.57-6.46,1.57Zm-.66-4.4c1.69,0,3.04-.47,4.07-1.4s1.82-2.17,2.37-3.71c.48-1.8,.84-3.45,1.1-4.95,.26-1.5,.38-2.82,.38-3.96,0-1.21-.19-2.29-.58-3.24-.38-.95-.98-1.71-1.79-2.28-.81-.57-1.85-.85-3.13-.85-1.72,0-3.11,.46-4.15,1.38-1.04,.92-1.83,2.09-2.34,3.52-.55,2.02-.94,3.77-1.18,5.25-.24,1.49-.36,2.85-.36,4.1,0,1.17,.19,2.23,.58,3.16,.39,.94,.99,1.67,1.82,2.2,.83,.53,1.9,.8,3.22,.8Z"/>
      <path class="cls-1" d="M212.1,67.7c-2.46,0-4.58-.39-6.35-1.16-1.78-.77-3.14-1.85-4.1-3.24-.95-1.39-1.43-2.99-1.43-4.79,0-.44,.02-.84,.05-1.21,.04-.37,.09-.81,.17-1.32h5.88c-.04,.29-.06,.55-.08,.77-.02,.22-.03,.48-.03,.77,0,1.8,.64,3.1,1.93,3.91,1.28,.81,2.93,1.21,4.95,1.21,1.65,0,3.13-.27,4.43-.83,1.3-.55,2.34-1.38,3.11-2.47,.77-1.1,1.16-2.46,1.16-4.07,0-1.17-.28-2.15-.85-2.92s-1.33-1.34-2.28-1.71c-.95-.37-2.04-.55-3.25-.55h-4.9l.66-4.46h4.35c1.28,0,2.5-.25,3.66-.74,1.16-.5,2.11-1.25,2.86-2.26,.75-1.01,1.13-2.28,1.13-3.82,0-1.65-.58-2.87-1.73-3.66-1.16-.79-2.61-1.18-4.37-1.18-2.13,0-3.88,.53-5.25,1.59-1.38,1.06-2.21,2.58-2.5,4.56h-5.67c.18-2.31,.92-4.31,2.2-6,1.28-1.69,2.97-2.99,5.06-3.9,2.09-.92,4.4-1.38,6.93-1.38h.83c2.2,0,4.13,.37,5.8,1.1,1.67,.73,2.97,1.76,3.9,3.08,.94,1.32,1.4,2.86,1.4,4.62s-.32,3.21-.96,4.46c-.64,1.25-1.5,2.3-2.58,3.16-1.08,.86-2.26,1.59-3.55,2.17v.28c1.65,.59,2.98,1.49,3.99,2.72,1.01,1.23,1.51,2.83,1.51,4.81,0,2.6-.67,4.84-2.01,6.71-1.34,1.87-3.13,3.29-5.39,4.26s-4.76,1.46-7.51,1.46h-1.15Z"/>
    </g>
    <g>
      <path class="cls-2" d="M64.37,114.71c-2.49,0-4.79-.35-6.9-1.04-2.11-.7-3.81-1.79-5.12-3.27-1.3-1.49-1.95-3.42-1.95-5.8,0-.55,.03-1.08,.08-1.59,.05-.51,.14-1.01,.25-1.49h9.62c-.07,.18-.14,.4-.19,.66-.05,.26-.08,.51-.08,.77,0,.73,.18,1.38,.55,1.95,.37,.57,.95,1.02,1.76,1.35,.81,.33,1.91,.49,3.3,.49s2.5-.16,3.33-.47c.83-.31,1.43-.73,1.81-1.27,.39-.53,.58-1.15,.58-1.84,0-.77-.33-1.38-.99-1.84-.66-.46-1.52-.83-2.59-1.13-1.06-.29-2.24-.6-3.52-.91-1.28-.31-2.57-.68-3.85-1.1-1.28-.42-2.47-1-3.55-1.73-1.08-.73-1.95-1.67-2.61-2.81-.66-1.14-.99-2.57-.99-4.29,0-3.01,.75-5.51,2.26-7.51,1.5-2,3.55-3.49,6.13-4.48s5.49-1.48,8.72-1.48c2.49,0,4.74,.34,6.74,1.02,2,.68,3.58,1.72,4.76,3.13,1.17,1.41,1.76,3.24,1.76,5.47,0,.29,0,.61-.03,.96-.02,.35-.08,.82-.19,1.4h-9.46c.04-.26,.06-.45,.06-.58v-.41c0-1.1-.41-1.95-1.24-2.56-.82-.6-2.06-.91-3.71-.91-1.03,0-1.94,.14-2.75,.41-.81,.28-1.43,.65-1.87,1.13-.44,.48-.66,1.06-.66,1.76,0,.81,.34,1.44,1.02,1.9,.68,.46,1.57,.84,2.67,1.16,1.1,.31,2.31,.61,3.63,.91,1.32,.29,2.63,.65,3.93,1.07,1.3,.42,2.5,.97,3.6,1.65,1.1,.68,1.99,1.56,2.67,2.64,.68,1.08,1.02,2.45,1.02,4.1,0,1.83-.3,3.62-.91,5.36-.6,1.74-1.6,3.3-3,4.67-1.39,1.38-3.24,2.48-5.53,3.3-2.29,.82-5.14,1.24-8.55,1.24Z"/>
      <path class="cls-2" d="M85.99,114.16l5.33-37.73h9.57l4.95,15.62,.88,3.74,.33-.06,2.7-19.3h9.4l-5.33,37.73h-9.62l-5-15.51-.88-3.46-.27,.06-2.64,18.92h-9.4Z"/>
      <path class="cls-2" d="M118.77,114.16l15.07-37.73h13.15l4.46,37.73h-9.85l-2.25-29.54h-.27l-10.17,29.54h-10.12Zm8.36-7.1l1.04-7.21h17.54l-1.04,7.21h-17.54Z"/>
      <path class="cls-2" d="M156.39,114.16l5.33-37.73h17.21c2.27,0,4.26,.41,5.97,1.24,1.71,.83,3.03,1.96,3.99,3.41,.95,1.45,1.43,3.16,1.43,5.14,0,2.82-.54,5.31-1.62,7.45-1.08,2.15-2.61,3.8-4.59,4.98-1.98,1.17-4.31,1.76-6.99,1.76h-8.69l-1.92,13.75h-10.12Zm13.15-21.56h5.67c1.06,0,1.92-.25,2.58-.74s1.14-1.13,1.43-1.9c.29-.77,.44-1.54,.44-2.31,0-.92-.28-1.71-.85-2.39-.57-.68-1.51-1.02-2.83-1.02h-5.28l-1.15,8.36Z"/>
      <path class="cls-2" d="M205.17,114.71c-2.49,0-4.79-.35-6.9-1.04-2.11-.7-3.81-1.79-5.12-3.27-1.3-1.49-1.95-3.42-1.95-5.8,0-.55,.03-1.08,.08-1.59,.05-.51,.14-1.01,.25-1.49h9.62c-.07,.18-.14,.4-.19,.66-.05,.26-.08,.51-.08,.77,0,.73,.18,1.38,.55,1.95,.37,.57,.95,1.02,1.76,1.35s1.91,.49,3.3,.49,2.5-.16,3.33-.47,1.43-.73,1.81-1.27c.39-.53,.58-1.15,.58-1.84,0-.77-.33-1.38-.99-1.84-.66-.46-1.52-.83-2.58-1.13-1.06-.29-2.24-.6-3.52-.91s-2.57-.68-3.85-1.1c-1.28-.42-2.47-1-3.55-1.73s-1.95-1.67-2.61-2.81c-.66-1.14-.99-2.57-.99-4.29,0-3.01,.75-5.51,2.26-7.51,1.5-2,3.55-3.49,6.13-4.48s5.49-1.48,8.72-1.48c2.49,0,4.74,.34,6.74,1.02,2,.68,3.58,1.72,4.76,3.13,1.17,1.41,1.76,3.24,1.76,5.47,0,.29,0,.61-.03,.96-.02,.35-.08,.82-.19,1.4h-9.46c.04-.26,.05-.45,.05-.58v-.41c0-1.1-.41-1.95-1.24-2.56-.83-.6-2.06-.91-3.71-.91-1.03,0-1.94,.14-2.75,.41-.81,.28-1.43,.65-1.87,1.13-.44,.48-.66,1.06-.66,1.76,0,.81,.34,1.44,1.02,1.9,.68,.46,1.57,.84,2.67,1.16s2.31,.61,3.63,.91c1.32,.29,2.63,.65,3.93,1.07,1.3,.42,2.5,.97,3.6,1.65s1.99,1.56,2.67,2.64c.68,1.08,1.02,2.45,1.02,4.1,0,1.83-.3,3.62-.91,5.36-.6,1.74-1.6,3.3-3,4.67-1.39,1.38-3.24,2.48-5.53,3.3-2.29,.82-5.14,1.24-8.55,1.24Z"/>
      <path class="cls-2" d="M226.79,114.16l5.33-37.73h9.9l-2.04,14.36h8.03l2.04-14.36h9.9l-5.33,37.73h-9.9l2.2-15.12h-8.08l-2.14,15.12h-9.9Z"/>
      <path class="cls-2" d="M309.28,114.16l4.12-29.54h-10.01l1.21-8.2h30.25l-1.16,8.2h-10.01l-4.18,29.54h-10.23Z"/>
    </g>
    <path class="cls-2" d="M315.15,46.23c6.15,1.39,7.8,3.03,9.18,9.18,.11,.49,.8,.49,.91,0,1.39-6.15,3.03-7.8,9.18-9.18,.49-.11,.49-.8,0-.91-6.15-1.39-7.8-3.03-9.18-9.18-.11-.49-.8-.49-.91,0-1.39,6.15-3.03,7.8-9.18,9.18-.49,.11-.49,.8,0,.91Z"/>
    <path class="cls-2" d="M306.91,33.58c3.08,.69,3.9,1.51,4.59,4.59,.05,.24,.4,.24,.45,0,.69-3.08,1.51-3.9,4.59-4.59,.24-.05,.24-.4,0-.45-3.08-.69-3.9-1.51-4.59-4.59-.05-.24-.4-.24-.45,0-.69,3.08-1.51,3.9-4.59,4.59-.24,.05-.24,.4,0,.45Z"/>
    <path class="cls-2" d="M298.64,56.11c4.62,1.04,5.85,2.27,6.89,6.89,.08,.36,.6,.36,.68,0,1.04-4.62,2.27-5.85,6.89-6.89,.36-.08,.36-.6,0-.68-4.62-1.04-5.85-2.27-6.89-6.89-.08-.36-.6-.36-.68,0-1.04,4.62-2.27,5.85-6.89,6.89-.36,.08-.36,.6,0,.68Z"/>
    <g>
      <path class="cls-2" d="M271.94,92.88l3.77-6.54c.03-.08,.08-.14,.12-.21l5.73-9.93c-6.09,.08-11.48,3-14.93,7.49l5.3,9.19Z"/>
      <path class="cls-2" d="M279.07,85.54h19.22c-2.94-4.91-8.01-8.38-13.93-9.16l-5.29,9.16Z"/>
      <path class="cls-2" d="M299.57,88.04h-10.58l3.77,6.53c.05,.07,.09,.14,.12,.22l5.72,9.91c1.54-2.76,2.42-5.93,2.42-9.32,0-2.6-.52-5.08-1.46-7.34Z"/>
      <path class="cls-2" d="M291.79,97.88l-9.63,16.68c6.08-.1,11.46-3.03,14.91-7.53l-5.28-9.14Z"/>
      <path class="cls-2" d="M284.66,105.22h-7.56c-.06,0-.12,.02-.18,.02s-.12-.01-.18-.02h-11.35c2.95,4.92,8.03,8.4,13.98,9.17l5.3-9.17Z"/>
      <path class="cls-2" d="M274.74,102.72l-9.65-16.71c-1.55,2.77-2.45,5.96-2.45,9.36,0,2.6,.52,5.08,1.46,7.34h10.63Z"/>
    </g>
  </g>
  <g>
    <path class="cls-1" d="M131.21,138.44v-13.72h5.24c.79,0,1.52,.11,2.19,.32,.67,.21,1.26,.53,1.75,.96s.88,.96,1.16,1.59c.28,.63,.42,1.36,.42,2.19v3.6c0,.81-.14,1.54-.42,2.17s-.67,1.16-1.16,1.59-1.08,.75-1.75,.97c-.67,.22-1.4,.33-2.19,.33h-5.24Zm3.36-2.56h1.6c.49,0,.92-.07,1.28-.22,.36-.15,.64-.39,.83-.72,.19-.33,.29-.79,.29-1.38v-3.98c0-.59-.1-1.05-.29-1.39-.19-.34-.47-.58-.83-.73-.36-.15-.79-.22-1.28-.22h-1.6v8.64Z"/>
    <path class="cls-1" d="M144.45,138.44l3.78-13.72h4.18l3.82,13.72h-3.32l-2.66-10.98h-.1l-2.54,10.98h-3.16Zm2.56-2.72v-2.36h6.52v2.36h-6.52Z"/>
    <path class="cls-1" d="M164.07,138.64c-.73,0-1.43-.08-2.09-.25-.66-.17-1.25-.42-1.77-.76-.52-.34-.93-.78-1.23-1.32-.3-.54-.45-1.19-.45-1.95v-.21c0-.07,0-.15,.02-.23h3.08c-.01,.05-.02,.1-.02,.15v.17c0,.36,.09,.68,.26,.95,.17,.27,.44,.48,.81,.63,.37,.15,.82,.22,1.37,.22s.99-.05,1.32-.15c.33-.1,.58-.26,.73-.48,.15-.22,.23-.49,.23-.81,0-.36-.14-.65-.41-.86-.27-.21-.63-.39-1.07-.53-.44-.14-.93-.27-1.46-.39s-1.07-.27-1.6-.45c-.53-.18-1.02-.42-1.47-.72-.45-.3-.81-.7-1.08-1.19-.27-.49-.41-1.11-.41-1.86,0-.92,.25-1.68,.74-2.28,.49-.6,1.15-1.05,1.97-1.35s1.72-.45,2.69-.45,1.83,.14,2.62,.42c.79,.28,1.42,.72,1.89,1.31,.47,.59,.71,1.36,.71,2.29v.26h-3.06v-.18c0-.33-.08-.62-.24-.87-.16-.25-.4-.44-.72-.57-.32-.13-.72-.2-1.2-.2-.41,0-.77,.05-1.08,.14-.31,.09-.54,.23-.71,.42-.17,.19-.25,.43-.25,.72,0,.37,.14,.67,.41,.88,.27,.21,.63,.38,1.07,.51,.44,.13,.93,.25,1.47,.37s1.08,.26,1.61,.43c.53,.17,1.02,.4,1.47,.69s.81,.68,1.09,1.15c.28,.47,.43,1.07,.44,1.79,0,1.09-.24,1.97-.73,2.64-.49,.67-1.16,1.15-2.01,1.46s-1.83,.46-2.94,.46Z"/>
    <path class="cls-1" d="M173.01,138.44v-13.72h3.2v5.38h3.46v-5.38h3.18v13.72h-3.18v-5.68h-3.46v5.68h-3.2Z"/>
    <path class="cls-1" d="M186.81,138.44v-13.72h6.42c.75,0,1.39,.14,1.92,.42s.95,.67,1.24,1.17c.29,.5,.44,1.08,.44,1.73s-.12,1.24-.35,1.67-.53,.77-.9,1.01c-.37,.24-.76,.42-1.17,.54v.1c.32,.07,.64,.17,.96,.32,.32,.15,.62,.35,.89,.61,.27,.26,.49,.59,.65,1,.16,.41,.24,.9,.24,1.49,0,.71-.16,1.34-.48,1.89-.32,.55-.76,.99-1.33,1.3-.57,.31-1.23,.47-1.99,.47h-6.54Zm3.04-8.2h2.34c.29,0,.55-.06,.77-.19,.22-.13,.39-.31,.51-.56,.12-.25,.18-.53,.18-.85,0-.53-.12-.92-.37-1.17s-.58-.37-1.01-.37h-2.42v3.14Zm0,5.64h2.56c.33,0,.61-.08,.84-.23s.4-.36,.51-.61c.11-.25,.17-.52,.17-.8,0-.36-.07-.66-.2-.9-.13-.24-.32-.42-.55-.54s-.49-.18-.77-.18h-2.56v3.26Z"/>
    <path class="cls-1" d="M205.67,138.64c-.79,0-1.51-.12-2.17-.37-.66-.25-1.23-.61-1.72-1.1-.49-.49-.86-1.09-1.12-1.82-.26-.73-.39-1.57-.39-2.53v-2.46c0-.97,.13-1.82,.4-2.55,.27-.73,.64-1.34,1.12-1.83,.48-.49,1.05-.86,1.71-1.1s1.38-.36,2.17-.36h.54c.79,0,1.51,.12,2.17,.37,.66,.25,1.23,.61,1.71,1.1,.48,.49,.85,1.09,1.12,1.82,.27,.73,.4,1.58,.4,2.55v2.46c0,.96-.13,1.8-.4,2.53-.27,.73-.64,1.33-1.12,1.82-.48,.49-1.05,.85-1.7,1.1-.65,.25-1.38,.37-2.18,.37h-.54Zm.26-2.54c.33,0,.64-.05,.91-.14,.27-.09,.51-.25,.72-.46,.21-.21,.37-.49,.48-.83,.11-.34,.17-.76,.17-1.25v-3.72c0-.49-.06-.91-.17-1.24-.11-.33-.27-.61-.48-.82-.21-.21-.45-.37-.72-.46-.27-.09-.58-.14-.91-.14s-.62,.05-.89,.14c-.27,.09-.51,.25-.71,.46-.2,.21-.36,.49-.47,.82s-.17,.75-.17,1.24v3.72c0,.49,.06,.91,.17,1.25s.27,.62,.47,.83c.2,.21,.44,.37,.71,.46,.27,.09,.57,.14,.89,.14Z"/>
    <path class="cls-1" d="M213.85,138.44l3.78-13.72h4.18l3.82,13.72h-3.32l-2.66-10.98h-.1l-2.54,10.98h-3.16Zm2.56-2.72v-2.36h6.52v2.36h-6.52Z"/>
    <path class="cls-1" d="M238.07,138.6c-.49,0-.93-.08-1.3-.23-.37-.15-.66-.42-.87-.79-.21-.37-.31-.89-.31-1.56,0-.4-.04-.77-.11-1.11-.07-.34-.19-.64-.35-.89-.16-.25-.37-.46-.62-.61-.25-.15-.56-.23-.92-.23h-1.72v5.26h-3.26v-13.72h6.42c.81,0,1.53,.15,2.16,.46,.63,.31,1.11,.73,1.46,1.28s.52,1.19,.52,1.92c0,.88-.22,1.62-.66,2.23-.44,.61-1.03,.99-1.76,1.15v.1c.49,.13,.9,.37,1.22,.7,.32,.33,.56,.72,.71,1.16,.15,.44,.23,.89,.23,1.36,0,.85,.08,1.46,.23,1.82,.15,.36,.42,.59,.79,.7v.7c-.27,.11-.56,.18-.89,.23-.33,.05-.65,.07-.97,.07Zm-6.2-7.9h2.26c.63,0,1.08-.17,1.37-.52,.29-.35,.43-.77,.43-1.26s-.14-.88-.42-1.2c-.28-.32-.71-.48-1.3-.48h-2.34v3.46Z"/>
    <path class="cls-1" d="M242.41,138.44v-13.72h5.24c.79,0,1.52,.11,2.19,.32,.67,.21,1.26,.53,1.75,.96s.88,.96,1.16,1.59c.28,.63,.42,1.36,.42,2.19v3.6c0,.81-.14,1.54-.42,2.17s-.67,1.16-1.16,1.59-1.08,.75-1.75,.97c-.67,.22-1.4,.33-2.19,.33h-5.24Zm3.36-2.56h1.6c.49,0,.92-.07,1.28-.22,.36-.15,.64-.39,.83-.72,.19-.33,.29-.79,.29-1.38v-3.98c0-.59-.1-1.05-.29-1.39-.19-.34-.47-.58-.83-.73-.36-.15-.79-.22-1.28-.22h-1.6v8.64Z"/>
  </g>
</svg>
